<?xml version="1.0" encoding="utf-8"?>
<!-- Generator: Adobe Illustrator 19.0.0, SVG Export Plug-In . SVG Version: 6.00 Build 0)  -->
<svg version="1.1" id="Layer_1" xmlns="http://www.w3.org/2000/svg" xmlns:xlink="http://www.w3.org/1999/xlink" x="0px" y="0px"
	 width="717.4px" height="159.9px" viewBox="0 0 717.4 159.9" style="enable-background:new 0 0 717.4 159.9;" xml:space="preserve"
	>
<style type="text/css">
	.st0{fill:#00BF4B;}
</style>
<path class="st0" d="M339.1,17.1C330.3,6.6,316.9,0,302.1,0c-11.9,0-22,4.2-30.1,10.8v-7c0-2-1.6-3.6-3.6-3.6l-23.9,0V111h28.6
	l0-68.6c0-1.9,0.7-3.8,2.1-5.2c4.8-5.1,13.5-10.7,23.9-10.7c6.6,0,12.3,2.2,16.1,5.9c4,4,6.4,9.5,6.4,20v55.1c0,2,1.6,3.6,3.6,3.6
	h25V54.5C350.1,36.3,346.1,25.5,339.1,17.1z"/>
<path class="st0" d="M58,84.7c-17.4,0-29.5-12.3-29.5-29c0-16.3,12.3-29.2,28.8-29.2c8.8,0,16.3,3.8,21.9,9.5
	c1.6,1.7,4.3,1.9,6.1,0.3l16.9-14.9C92.3,8.6,75.9,0.1,57.4,0.1C24.8,0.1,0,24.7,0,55.7c0,30.8,24.2,55.4,57.2,55.4
	c20,0,35.8-7.3,48.4-24L87,73.2c-1.8-1.4-4.4-1.1-5.8,0.6C76.1,79.6,67.9,84.7,58,84.7z"/>
<path class="st0" d="M418.9,0.1c-32.3,0-56.7,24.8-56.7,55.6c0,30.8,24.4,55.4,56.7,55.4s56.7-24.6,56.7-55.4
	C475.6,24.9,451.2,0.1,418.9,0.1z M418.9,84.7c-16.7,0-28.1-13-28.1-29c0-16.1,11.4-29.2,28.1-29.2c16.7,0,28.1,13.2,28.1,29.2
	C447,71.7,435.6,84.7,418.9,84.7z"/>
<g>
	<path class="st0" d="M198.1,0.1c-2.3,0-4.1,1.8-4.1,4.1V11c-8.4-6.8-19.1-10.8-31.2-10.8c-29,0-52.3,24.2-52.3,55.6
		c0,14.5,5.3,27.7,13.6,37.4c9.5,11,24.4,18,40.2,18c10.8,0,20.9-3.3,29.7-10.8l0,10.7h27.5V0.1H198.1z M192.9,69.6
		c-0.2,2-0.5,2.7-1.3,3.8c-5.6,6.9-14.4,11.4-24.4,11.4c-16,0-28.1-12.3-28.1-29c0-15.4,10.8-29.2,27.5-29.2
		c10.1,0,19,4.5,24.9,11.4c0.9,1.1,1.3,1.8,1.4,3.9c0,0,0.4,5.7,0.4,13C193.3,64.3,192.9,69.6,192.9,69.6z"/>
</g>
<g>
	<g>
		<path class="st0" d="M644,159.5l-0.2,0.4C643.9,159.8,643.9,159.6,644,159.5z"/>
		<path class="st0" d="M657.5,66.2L627.1,4c-1.2-2.4-3.6-3.9-6.3-3.9h-27.1l48.9,98c0,0-21.8,47.1-25.6,55.6l25.5,0
			c2.7,0,5.2-1.6,6.3-4.1c11.2-24.3,68.6-149.4,68.6-149.4l-26.5,0c-2,0-3.9,1.2-4.7,3C680.4,16.3,657.5,66.2,657.5,66.2z"/>
	</g>
</g>
<path class="st0" d="M546.3,0.1c-12.1,0-22.9,4-31.2,10.8V4.3c0-2.3-1.8-4.1-4.1-4.1c-7.3,0-21.9,0-23.4,0c0,0,0.1,132.7,0.1,153.5
	c2,0,17.1,0,24.5,0c2.3,0,4.1-1.8,4.1-4.1c0.1-11.7,0-48,0-48c8.5,6.5,17.7,9.6,28.4,9.6c15.8,0,31-7,40.5-18
	c8.4-9.7,13.4-22.9,13.4-37.4C598.6,24.2,575.3,0.1,546.3,0.1z M541.9,84.7c-6.9,0-13.3-2.2-18.4-5.8c-2.3-1.6-4.3-3.5-6-5.7
	c-0.7-0.9-1-1.4-1.1-3.2c0,0-0.3-7.1-0.3-15c0-7.2,0.3-13.8,0.3-13.8c0.2-1.8,0.4-2.4,1.3-3.4c6-6.9,14.8-11.5,25-11.5
	c8.8,0,16,3.9,20.8,9.8c0.1,0.1,0.2,0.3,0.3,0.4c1.3,1.7,2.4,3.5,3.3,5.4c2,4.1,3,8.8,3,13.6C570,72.4,557.9,84.7,541.9,84.7z"/>
</svg>
